<?xml version="1.0" encoding="iso-8859-1"?>
<!-- Uploaded to: SVG Repo, www.svgrepo.com, Generator: SVG Repo Mixer Tools -->
<svg height="800px" width="800px" version="1.1" id="Layer_1" xmlns="http://www.w3.org/2000/svg" xmlns:xlink="http://www.w3.org/1999/xlink" 
	 viewBox="0 0 512 512" xml:space="preserve">
<path style="fill:#B36E44;" d="M440.067,44.508H75.708c-2.381,0-4.312-1.931-4.312-4.312V25.105c0-2.381,1.931-4.312,4.312-4.312
	h364.359c2.381,0,4.312,1.931,4.312,4.312v15.093C444.378,42.579,442.448,44.508,440.067,44.508z"/>
<path style="fill:#8C5635;" d="M91.338,40.197V25.105c0-2.381,1.93-4.312,4.312-4.312H75.708c-2.381,0-4.312,1.931-4.312,4.312
	v15.093c0,2.381,1.93,4.312,4.312,4.312H95.65C93.269,44.508,91.338,42.579,91.338,40.197z"/>
<g>
	<path style="fill:#FFE666;" d="M168.909,12.936v204.817c0,4.787-2.598,8.968-6.468,11.2c-1.908,1.111-4.118,1.736-6.468,1.736
		c-1.034,0-2.038-0.118-3.007-0.355c-2.36-0.56-4.473-1.768-6.144-3.428c-2.34-2.34-3.784-5.573-3.784-9.152V12.936
		c0-6.113,4.237-11.233,9.929-12.581C153.938,0.118,154.94,0,155.974,0c2.35,0,4.56,0.625,6.468,1.736
		c0.992,0.56,1.886,1.251,2.684,2.048C167.464,6.123,168.909,9.357,168.909,12.936z"/>
	<path style="fill:#FFE666;" d="M194.781,12.936v204.817c0,4.787-2.598,8.968-6.468,11.2c-1.908,1.111-4.118,1.736-6.468,1.736
		c-3.568,0-6.802-1.444-9.152-3.784c-1.002-1.003-1.833-2.156-2.458-3.439c-0.032-0.032-0.053-0.075-0.075-0.13
		c-0.798-1.693-1.251-3.579-1.251-5.584V12.936c0-6.231,4.409-11.437,10.273-12.666c0.862-0.172,1.746-0.27,2.662-0.27
		c2.35,0,4.56,0.625,6.468,1.736c0.992,0.56,1.886,1.251,2.684,2.048C193.336,6.123,194.781,9.357,194.781,12.936z"/>
	<path style="fill:#FFE666;" d="M220.653,12.936v204.817c0,4.787-2.598,8.968-6.468,11.2c-1.908,1.111-4.118,1.736-6.468,1.736
		c-3.568,0-6.802-1.444-9.152-3.784c-0.937-0.938-1.725-2.005-2.328-3.191c-0.938-1.79-1.456-3.806-1.456-5.961V12.936
		c0-6.263,4.452-11.492,10.359-12.688C205.97,0.087,206.833,0,207.717,0c2.35,0,4.56,0.625,6.468,1.736
		c0.992,0.56,1.886,1.251,2.684,2.048C219.208,6.123,220.653,9.357,220.653,12.936z"/>
	<path style="fill:#FFE666;" d="M143.038,12.936v204.817c0,4.787-2.598,8.968-6.468,11.2c-1.908,1.111-4.118,1.736-6.468,1.736
		c-0.852,0-1.671-0.075-2.48-0.248c-0.172-0.022-0.355-0.065-0.529-0.108c-2.36-0.56-4.473-1.768-6.144-3.428
		c-2.34-2.34-3.784-5.573-3.784-9.152V12.936c0-3.32,1.239-6.338,3.288-8.624c1.843-2.07,4.345-3.525,7.168-4.075
		C128.42,0.075,129.25,0,130.102,0c2.35,0,4.56,0.625,6.468,1.736c0.992,0.56,1.886,1.251,2.684,2.048
		C141.593,6.123,143.038,9.357,143.038,12.936z"/>
</g>
<g>
	<path style="fill:#EDBF31;" d="M136.57,1.736v227.217c-1.908,1.111-4.118,1.736-6.468,1.736c-0.852,0-1.671-0.075-2.48-0.248
		c-0.172-0.022-0.355-0.065-0.529-0.108c-2.36-0.56-4.473-1.768-6.144-3.428c-2.34-2.34-3.784-5.573-3.784-9.152V12.936
		c0-3.32,1.239-6.338,3.288-8.624c1.843-2.07,4.345-3.525,7.168-4.075C128.42,0.075,129.25,0,130.102,0
		C132.452,0,134.662,0.625,136.57,1.736z"/>
	<path style="fill:#EDBF31;" d="M162.441,1.736v227.217c-1.908,1.111-4.118,1.736-6.468,1.736c-1.034,0-2.038-0.118-3.007-0.355
		c-2.36-0.56-4.473-1.768-6.144-3.428c-2.34-2.34-3.784-5.573-3.784-9.152V12.936c0-6.113,4.237-11.233,9.929-12.581
		C153.938,0.118,154.94,0,155.975,0C158.323,0,160.533,0.625,162.441,1.736z"/>
	<path style="fill:#EDBF31;" d="M188.313,1.736v227.217c-1.908,1.111-4.118,1.736-6.468,1.736c-3.568,0-6.802-1.444-9.152-3.784
		c-1.002-1.003-1.833-2.156-2.458-3.439c-0.032-0.032-0.053-0.075-0.075-0.13c-0.798-1.693-1.251-3.579-1.251-5.584V12.936
		c0-6.231,4.409-11.437,10.273-12.666c0.862-0.172,1.746-0.27,2.662-0.27C184.195,0,186.405,0.625,188.313,1.736z"/>
	<path style="fill:#EDBF31;" d="M214.185,1.736v227.217c-1.908,1.111-4.118,1.736-6.468,1.736c-3.568,0-6.802-1.444-9.152-3.784
		c-0.937-0.938-1.725-2.005-2.328-3.191c-0.938-1.79-1.456-3.806-1.456-5.961V12.936c0-6.263,4.452-11.492,10.359-12.688
		C205.97,0.087,206.833,0,207.717,0C210.067,0,212.277,0.625,214.185,1.736z"/>
</g>
<path style="fill:#7FB2F0;" d="M306.266,211.45l-24.062,296.586c-0.182,2.239-2.051,3.963-4.298,3.963h-179.1
	c-2.247,0-4.116-1.724-4.298-3.963L70.448,211.45c-0.204-2.511,1.778-4.66,4.298-4.66h227.224
	C304.487,206.789,306.47,208.939,306.266,211.45z"/>
<path style="fill:#5F95D4;" d="M115.678,512H98.806c-2.247,0-4.116-1.724-4.298-3.963l-3.591-44.266l-20.471-252.32
	c-0.204-2.511,1.778-4.66,4.298-4.66h16.172l19.921,245.597v0.01L115.678,512z"/>
<polygon style="fill:#F75534;" points="299.841,290.582 295.098,349.084 81.613,349.084 76.871,290.582 "/>
<polygon style="fill:#C7452A;" points="102.462,349.084 81.613,349.084 76.871,290.582 97.718,290.582 "/>
<path style="fill:#5F95D4;" d="M115.678,512H98.806c-2.247,0-4.116-1.724-4.298-3.963l-3.591-44.266
	c0.517,0.054,1.046,0.075,1.596,0.075c8.333,0,13.777-4.98,18.325-11.448L115.678,512z"/>
<path style="fill:#F75534;" d="M285.795,463.771l-3.591,44.266c-0.182,2.239-2.051,3.963-4.298,3.963h-179.1
	c-2.247,0-4.116-1.724-4.298-3.963l-3.591-44.266c0.517,0.054,1.046,0.075,1.596,0.075c17.69,0,22.314-22.358,33.191-34.032
	c3.838-4.14,8.451-6.932,14.714-6.932c23.964,0,23.964,40.963,47.916,40.963s23.953-40.963,47.905-40.963
	c23.964,0,23.964,40.963,47.917,40.963C284.717,463.846,285.267,463.825,285.795,463.771z"/>
<path style="fill:#B36E44;" d="M431.551,109.493L71.289,55.009c-2.354-0.356-3.975-2.554-3.618-4.908l2.257-14.922
	c0.356-2.354,2.554-3.975,4.908-3.618l360.262,54.484c2.354,0.356,3.975,2.554,3.618,4.908l-2.257,14.922
	C436.103,108.228,433.906,109.849,431.551,109.493z"/>
<path style="fill:#8C5635;" d="M85.078,52.906l2.303-15.23c0.294-1.938,1.814-3.368,3.65-3.667L74.835,31.56
	c-2.354-0.356-4.553,1.264-4.908,3.618L67.67,50.101c-0.356,2.354,1.264,4.552,3.618,4.908l16.102,2.436
	C85.778,56.596,84.79,54.809,85.078,52.906z"/>
<circle style="fill:#FFE666;" cx="188.353" cy="319.833" r="71.68"/>
<circle style="fill:#EDBF31;" cx="188.353" cy="319.833" r="50.688"/>
<path style="fill:#C7452A;" d="M115.678,512H98.806c-2.247,0-4.116-1.724-4.298-3.963l-3.591-44.266
	c0.517,0.054,1.046,0.075,1.596,0.075c8.333,0,13.777-4.98,18.325-11.448L115.678,512z"/>
</svg>