<?xml version="1.0" encoding="utf-8"?>
<!-- Uploaded to: SVG Repo, www.svgrepo.com, Generator: SVG Repo Mixer Tools -->
<svg width="800px" height="800px" viewBox="0 0 1024 1024" class="icon"  version="1.1" xmlns="http://www.w3.org/2000/svg"><path d="M636.9 505.1c36.1 36.1 36.1 94.7 0 130.9-36.1 36.1-94.8 36.1-130.9 0L299 429c-36.1-36.1-36.1-94.7 0-130.9 36.2-36.2 94.8-36.2 130.9 0l207 207z" fill="#E15F3D" /><path d="M522 558.5c-8.4 0-16.9-2.3-24.3-9.7-14.8-14.8-9.4-33.9-5.5-47.9 3.5-12.4 4.5-18.1 1.5-21-2.9-2.9-8.6-1.9-21 1.6-14 3.9-33.1 9.3-47.9-5.4-14.8-14.8-9.4-33.9-5.4-47.9 3.5-12.4 4.5-18.1 1.6-21-2.9-2.9-8.6-1.9-21 1.6-14 3.9-33.1 9.3-47.8-5.4-14.8-14.8-9.4-33.9-5.4-47.9 3.5-12.4 4.5-18.1 1.6-21-5.4-5.4-5.4-14 0-19.4 5.4-5.4 14-5.4 19.4 0 14.8 14.8 9.4 33.9 5.4 47.8-3.5 12.4-4.5 18.1-1.6 21 2.9 2.9 8.6 1.9 21-1.6 14-3.9 33.1-9.3 47.9 5.4 14.8 14.8 9.4 33.9 5.4 47.9-3.5 12.4-4.5 18.1-1.6 21 2.9 2.9 8.6 1.9 21-1.6 14-3.9 33.1-9.3 47.9 5.4 14.8 14.8 9.4 33.9 5.5 47.9-3.5 12.4-4.5 18.1-1.5 21 2.9 2.9 8.6 1.9 21-1.6 14-3.9 33.1-9.3 47.9 5.5 5.4 5.4 5.4 14 0 19.4-5.4 5.4-14 5.4-19.4 0-2.9-2.9-8.6-2-21 1.5-7 2.1-15.3 4.4-23.7 4.4z" fill="#F7B71B" /><path d="M762.5 737.5L656.7 631.7c29.7-41.2 26.1-99.1-11-136.2L440.1 289.8c-19.9-19.9-46.4-30.9-74.6-30.9-28.2 0-54.7 11-74.6 30.9-19.9 19.9-30.9 46.4-30.9 74.6 0 28.2 11 54.7 30.9 74.6l205.6 205.6c19.9 19.9 46.4 30.9 74.6 30.9 22.4 0 43.7-7 61.6-19.9l105.8 105.8c3.3 3.3 7.7 5 12 5 4.4 0 8.7-1.7 12-5 6.6-6.5 6.6-17.3 0-23.9zM571 648.4c-20.9 0-40.6-8.1-55.4-22.9L310 419.9c-14.8-14.8-22.9-34.5-22.9-55.4s8.1-40.6 22.9-55.4c14.8-14.8 34.5-22.9 55.4-22.9s40.6 8.1 55.4 22.9l205.6 205.6c26.4 26.4 29.9 67.1 10.7 97.3l-10.5-10.4c2.2-3.2 3.4-7.1 2.9-11.3-1-9.4-9.3-16.2-18.7-15.2-28.1 2.9-36.9 24.8-35.9 38.8 0.6 9 8.1 15.9 17 15.9h1.1c3.7-0.2 7-1.7 9.7-3.9l10.3 10.3c-12.4 7.9-26.9 12.2-42 12.2z" fill="#211F1E" /></svg>